<mxfile host="app.diagrams.net" agent="Mozilla/5.0 (Windows NT 10.0; Win64; x64) AppleWebKit/537.36 (KHTML, like Gecko) Chrome/139.0.0.0 Safari/537.36" version="28.1.1">
  <diagram name="Страница — 1" id="hdIFQ1vzAvyj-mAowYyg">
    <mxGraphModel dx="1426" dy="743" grid="1" gridSize="10" guides="1" tooltips="1" connect="1" arrows="1" fold="1" page="1" pageScale="1" pageWidth="827" pageHeight="1169" background="none" math="0" shadow="0">
      <root>
        <mxCell id="0" />
        <mxCell id="1" parent="0" />
        <mxCell id="F9IBA3F-2WCXJF_PGCWM-14" value="" style="edgeStyle=orthogonalEdgeStyle;rounded=0;orthogonalLoop=1;jettySize=auto;html=1;" parent="1" edge="1">
          <mxGeometry relative="1" as="geometry">
            <mxPoint x="360" y="180" as="sourcePoint" />
            <mxPoint x="260" y="180" as="targetPoint" />
          </mxGeometry>
        </mxCell>
        <mxCell id="F9IBA3F-2WCXJF_PGCWM-19" value="" style="edgeStyle=orthogonalEdgeStyle;rounded=0;orthogonalLoop=1;jettySize=auto;html=1;" parent="1" source="F9IBA3F-2WCXJF_PGCWM-1" target="F9IBA3F-2WCXJF_PGCWM-18" edge="1">
          <mxGeometry relative="1" as="geometry" />
        </mxCell>
        <mxCell id="F9IBA3F-2WCXJF_PGCWM-1" value="PoliciesScreen&lt;br&gt;ViewModel" style="rounded=0;whiteSpace=wrap;html=1;" parent="1" vertex="1">
          <mxGeometry x="360" y="160" width="160" height="80" as="geometry" />
        </mxCell>
        <mxCell id="F9IBA3F-2WCXJF_PGCWM-4" value="" style="endArrow=none;dashed=1;html=1;rounded=0;" parent="1" edge="1">
          <mxGeometry width="50" height="50" relative="1" as="geometry">
            <mxPoint x="40" y="80" as="sourcePoint" />
            <mxPoint x="800" y="80" as="targetPoint" />
          </mxGeometry>
        </mxCell>
        <mxCell id="F9IBA3F-2WCXJF_PGCWM-5" value="Presentation (UI)" style="edgeLabel;html=1;align=center;verticalAlign=middle;resizable=0;points=[];fontStyle=1;fontSize=12;" parent="F9IBA3F-2WCXJF_PGCWM-4" vertex="1" connectable="0">
          <mxGeometry x="-0.7474" y="-1" relative="1" as="geometry">
            <mxPoint as="offset" />
          </mxGeometry>
        </mxCell>
        <mxCell id="F9IBA3F-2WCXJF_PGCWM-7" value="" style="endArrow=none;dashed=1;html=1;rounded=0;" parent="1" edge="1">
          <mxGeometry width="50" height="50" relative="1" as="geometry">
            <mxPoint x="40" y="960" as="sourcePoint" />
            <mxPoint x="800" y="960" as="targetPoint" />
          </mxGeometry>
        </mxCell>
        <mxCell id="F9IBA3F-2WCXJF_PGCWM-8" value="Admin (Device Control)" style="edgeLabel;html=1;align=center;verticalAlign=middle;resizable=0;points=[];fontStyle=1;fontSize=12;" parent="F9IBA3F-2WCXJF_PGCWM-7" vertex="1" connectable="0">
          <mxGeometry x="-0.7474" y="-1" relative="1" as="geometry">
            <mxPoint as="offset" />
          </mxGeometry>
        </mxCell>
        <mxCell id="F9IBA3F-2WCXJF_PGCWM-9" value="" style="endArrow=none;dashed=1;html=1;rounded=0;" parent="1" edge="1">
          <mxGeometry width="50" height="50" relative="1" as="geometry">
            <mxPoint x="40" y="400" as="sourcePoint" />
            <mxPoint x="800" y="400" as="targetPoint" />
          </mxGeometry>
        </mxCell>
        <mxCell id="F9IBA3F-2WCXJF_PGCWM-10" value="Data (Network + Database)" style="edgeLabel;html=1;align=center;verticalAlign=middle;resizable=0;points=[];fontStyle=1;fontSize=12;" parent="F9IBA3F-2WCXJF_PGCWM-9" vertex="1" connectable="0">
          <mxGeometry x="-0.7474" y="-1" relative="1" as="geometry">
            <mxPoint as="offset" />
          </mxGeometry>
        </mxCell>
        <mxCell id="F9IBA3F-2WCXJF_PGCWM-11" value="" style="endArrow=none;dashed=1;html=1;rounded=0;fontSize=12;fontStyle=1" parent="1" edge="1">
          <mxGeometry width="50" height="50" relative="1" as="geometry">
            <mxPoint x="40" y="680" as="sourcePoint" />
            <mxPoint x="800" y="680" as="targetPoint" />
          </mxGeometry>
        </mxCell>
        <mxCell id="F9IBA3F-2WCXJF_PGCWM-12" value="Core (Service + Workmanagers)" style="edgeLabel;html=1;align=center;verticalAlign=middle;resizable=0;points=[];fontStyle=1;fontSize=12;" parent="F9IBA3F-2WCXJF_PGCWM-11" vertex="1" connectable="0">
          <mxGeometry x="-0.7474" y="-1" relative="1" as="geometry">
            <mxPoint as="offset" />
          </mxGeometry>
        </mxCell>
        <mxCell id="F9IBA3F-2WCXJF_PGCWM-50" style="edgeStyle=orthogonalEdgeStyle;rounded=0;orthogonalLoop=1;jettySize=auto;html=1;exitX=1;exitY=0.75;exitDx=0;exitDy=0;" parent="1" source="F9IBA3F-2WCXJF_PGCWM-13" edge="1">
          <mxGeometry relative="1" as="geometry">
            <mxPoint x="363" y="215" as="targetPoint" />
          </mxGeometry>
        </mxCell>
        <mxCell id="F9IBA3F-2WCXJF_PGCWM-13" value="Compose" style="whiteSpace=wrap;html=1;rounded=0;fillColor=#d5e8d4;strokeColor=#82b366;" parent="1" vertex="1">
          <mxGeometry x="140" y="170" width="120" height="60" as="geometry" />
        </mxCell>
        <mxCell id="F9IBA3F-2WCXJF_PGCWM-15" value="BaseMVI&lt;br&gt;ViewModel" style="whiteSpace=wrap;html=1;" parent="1" vertex="1">
          <mxGeometry x="420" y="90" width="100" height="40" as="geometry" />
        </mxCell>
        <mxCell id="F9IBA3F-2WCXJF_PGCWM-16" style="edgeStyle=orthogonalEdgeStyle;rounded=0;orthogonalLoop=1;jettySize=auto;html=1;exitX=0.75;exitY=0;exitDx=0;exitDy=0;entryX=0.61;entryY=1.025;entryDx=0;entryDy=0;entryPerimeter=0;" parent="1" source="F9IBA3F-2WCXJF_PGCWM-1" target="F9IBA3F-2WCXJF_PGCWM-15" edge="1">
          <mxGeometry relative="1" as="geometry" />
        </mxCell>
        <mxCell id="F9IBA3F-2WCXJF_PGCWM-17" value="Composable" style="whiteSpace=wrap;html=1;rounded=0;fillColor=#d5e8d4;strokeColor=#82b366;" parent="1" vertex="1">
          <mxGeometry x="200" y="240" width="100" height="30" as="geometry" />
        </mxCell>
        <mxCell id="F9IBA3F-2WCXJF_PGCWM-21" value="" style="edgeStyle=orthogonalEdgeStyle;rounded=0;orthogonalLoop=1;jettySize=auto;html=1;" parent="1" source="F9IBA3F-2WCXJF_PGCWM-18" target="F9IBA3F-2WCXJF_PGCWM-20" edge="1">
          <mxGeometry relative="1" as="geometry" />
        </mxCell>
        <mxCell id="F9IBA3F-2WCXJF_PGCWM-18" value="PoliciesRepository" style="rounded=0;whiteSpace=wrap;html=1;" parent="1" vertex="1">
          <mxGeometry x="365" y="440" width="150" height="70" as="geometry" />
        </mxCell>
        <mxCell id="F9IBA3F-2WCXJF_PGCWM-29" style="edgeStyle=orthogonalEdgeStyle;rounded=0;orthogonalLoop=1;jettySize=auto;html=1;exitX=0.5;exitY=1;exitDx=0;exitDy=0;" parent="1" source="F9IBA3F-2WCXJF_PGCWM-20" target="F9IBA3F-2WCXJF_PGCWM-24" edge="1">
          <mxGeometry relative="1" as="geometry" />
        </mxCell>
        <mxCell id="F9IBA3F-2WCXJF_PGCWM-20" value="PoliciesDAO" style="whiteSpace=wrap;html=1;rounded=0;" parent="1" vertex="1">
          <mxGeometry x="610" y="445" width="120" height="60" as="geometry" />
        </mxCell>
        <mxCell id="F9IBA3F-2WCXJF_PGCWM-24" value="Database" style="shape=datastore;whiteSpace=wrap;html=1;" parent="1" vertex="1">
          <mxGeometry x="610" y="560" width="120" height="100" as="geometry" />
        </mxCell>
        <mxCell id="F9IBA3F-2WCXJF_PGCWM-30" value="&lt;b&gt;SSOT&lt;/b&gt;" style="text;html=1;align=center;verticalAlign=middle;resizable=0;points=[];autosize=1;strokeColor=#9673a6;fillColor=#e1d5e7;" parent="1" vertex="1">
          <mxGeometry x="740" y="530" width="60" height="30" as="geometry" />
        </mxCell>
        <mxCell id="F9IBA3F-2WCXJF_PGCWM-31" value="MVI" style="text;html=1;align=center;verticalAlign=middle;resizable=0;points=[];autosize=1;strokeColor=#9673a6;fillColor=#e1d5e7;fontStyle=1" parent="1" vertex="1">
          <mxGeometry x="280" y="100" width="40" height="30" as="geometry" />
        </mxCell>
        <mxCell id="F9IBA3F-2WCXJF_PGCWM-32" value="- ROOM&lt;div&gt;- KTOR (SSE)&lt;/div&gt;" style="text;html=1;align=left;verticalAlign=middle;resizable=0;points=[];autosize=1;strokeColor=none;fillColor=none;" parent="1" vertex="1">
          <mxGeometry x="40" y="440" width="100" height="40" as="geometry" />
        </mxCell>
        <mxCell id="F9IBA3F-2WCXJF_PGCWM-34" style="edgeStyle=orthogonalEdgeStyle;rounded=0;orthogonalLoop=1;jettySize=auto;html=1;exitX=1;exitY=0.5;exitDx=0;exitDy=0;entryX=0;entryY=0.7;entryDx=0;entryDy=0;" parent="1" source="F9IBA3F-2WCXJF_PGCWM-33" target="F9IBA3F-2WCXJF_PGCWM-24" edge="1">
          <mxGeometry relative="1" as="geometry" />
        </mxCell>
        <mxCell id="F9IBA3F-2WCXJF_PGCWM-33" value="PolicyReceiver (SSE)" style="rounded=0;whiteSpace=wrap;html=1;" parent="1" vertex="1">
          <mxGeometry x="160" y="560" width="120" height="40" as="geometry" />
        </mxCell>
        <mxCell id="F9IBA3F-2WCXJF_PGCWM-35" value="READ" style="text;html=1;align=center;verticalAlign=middle;resizable=0;points=[];autosize=1;strokeColor=none;fillColor=none;" parent="1" vertex="1">
          <mxGeometry x="620" y="518" width="60" height="30" as="geometry" />
        </mxCell>
        <mxCell id="F9IBA3F-2WCXJF_PGCWM-36" value="WRITE" style="text;html=1;align=center;verticalAlign=middle;resizable=0;points=[];autosize=1;strokeColor=none;fillColor=none;" parent="1" vertex="1">
          <mxGeometry x="490" y="600" width="60" height="30" as="geometry" />
        </mxCell>
        <mxCell id="F9IBA3F-2WCXJF_PGCWM-37" value="- Compose&lt;div&gt;- Viewmodel&lt;br&gt;- Material 3&lt;/div&gt;" style="text;html=1;align=left;verticalAlign=middle;resizable=0;points=[];autosize=1;strokeColor=none;fillColor=none;" parent="1" vertex="1">
          <mxGeometry x="40" y="110" width="90" height="60" as="geometry" />
        </mxCell>
        <mxCell id="F9IBA3F-2WCXJF_PGCWM-38" value="Single Activity" style="text;html=1;align=center;verticalAlign=middle;resizable=0;points=[];autosize=1;strokeColor=#9673a6;fillColor=#e1d5e7;fontStyle=1" parent="1" vertex="1">
          <mxGeometry x="40" y="290" width="100" height="30" as="geometry" />
        </mxCell>
        <mxCell id="F9IBA3F-2WCXJF_PGCWM-39" value="Navigation Graph" style="text;html=1;align=center;verticalAlign=middle;resizable=0;points=[];autosize=1;strokeColor=#9673a6;fillColor=#e1d5e7;fontStyle=1" parent="1" vertex="1">
          <mxGeometry x="40" y="330" width="120" height="30" as="geometry" />
        </mxCell>
        <mxCell id="F9IBA3F-2WCXJF_PGCWM-40" value="Mobile Arch" style="text;html=1;align=center;verticalAlign=middle;resizable=0;points=[];autosize=1;strokeColor=none;fillColor=none;fontStyle=1" parent="1" vertex="1">
          <mxGeometry x="390" y="10" width="90" height="30" as="geometry" />
        </mxCell>
        <mxCell id="F9IBA3F-2WCXJF_PGCWM-42" style="edgeStyle=orthogonalEdgeStyle;rounded=0;orthogonalLoop=1;jettySize=auto;html=1;entryX=0.5;entryY=1;entryDx=0;entryDy=0;" parent="1" source="F9IBA3F-2WCXJF_PGCWM-41" target="F9IBA3F-2WCXJF_PGCWM-33" edge="1">
          <mxGeometry relative="1" as="geometry">
            <mxPoint x="220" y="720" as="targetPoint" />
          </mxGeometry>
        </mxCell>
        <mxCell id="F9IBA3F-2WCXJF_PGCWM-41" value="Core Service" style="rounded=0;whiteSpace=wrap;html=1;" parent="1" vertex="1">
          <mxGeometry x="160" y="760" width="120" height="80" as="geometry" />
        </mxCell>
        <mxCell id="F9IBA3F-2WCXJF_PGCWM-44" value="Kotlin Flow (Reactive streams)" style="text;html=1;align=center;verticalAlign=middle;resizable=0;points=[];autosize=1;strokeColor=none;fillColor=none;" parent="1" vertex="1">
          <mxGeometry x="440" y="348" width="190" height="30" as="geometry" />
        </mxCell>
        <mxCell id="F9IBA3F-2WCXJF_PGCWM-47" value="Composable" style="whiteSpace=wrap;html=1;rounded=0;fillColor=#d5e8d4;strokeColor=#82b366;" parent="1" vertex="1">
          <mxGeometry x="200" y="280" width="100" height="30" as="geometry" />
        </mxCell>
        <mxCell id="F9IBA3F-2WCXJF_PGCWM-51" value="State" style="text;html=1;align=center;verticalAlign=middle;resizable=0;points=[];autosize=1;strokeColor=none;fillColor=none;" parent="1" vertex="1">
          <mxGeometry x="283" y="153" width="50" height="30" as="geometry" />
        </mxCell>
        <mxCell id="F9IBA3F-2WCXJF_PGCWM-52" value="UserAction" style="text;html=1;align=center;verticalAlign=middle;resizable=0;points=[];autosize=1;strokeColor=none;fillColor=none;" parent="1" vertex="1">
          <mxGeometry x="269" y="191" width="80" height="30" as="geometry" />
        </mxCell>
        <mxCell id="F9IBA3F-2WCXJF_PGCWM-55" value="- Service&lt;div&gt;- Workmanager&lt;/div&gt;" style="text;html=1;align=left;verticalAlign=middle;resizable=0;points=[];autosize=1;strokeColor=none;fillColor=none;" parent="1" vertex="1">
          <mxGeometry x="40" y="720" width="110" height="40" as="geometry" />
        </mxCell>
        <mxCell id="F9IBA3F-2WCXJF_PGCWM-58" style="edgeStyle=orthogonalEdgeStyle;rounded=0;orthogonalLoop=1;jettySize=auto;html=1;entryX=1;entryY=0.25;entryDx=0;entryDy=0;" parent="1" source="F9IBA3F-2WCXJF_PGCWM-56" target="F9IBA3F-2WCXJF_PGCWM-41" edge="1">
          <mxGeometry relative="1" as="geometry" />
        </mxCell>
        <mxCell id="F9IBA3F-2WCXJF_PGCWM-56" value="ConnectionWorkManager" style="rounded=0;whiteSpace=wrap;html=1;" parent="1" vertex="1">
          <mxGeometry x="440" y="760" width="200" height="40" as="geometry" />
        </mxCell>
        <mxCell id="F9IBA3F-2WCXJF_PGCWM-57" value="EnsureActiveWorkManager" style="rounded=0;whiteSpace=wrap;html=1;" parent="1" vertex="1">
          <mxGeometry x="440" y="840" width="200" height="40" as="geometry" />
        </mxCell>
        <mxCell id="F9IBA3F-2WCXJF_PGCWM-59" style="edgeStyle=orthogonalEdgeStyle;rounded=0;orthogonalLoop=1;jettySize=auto;html=1;entryX=1;entryY=0.638;entryDx=0;entryDy=0;entryPerimeter=0;" parent="1" source="F9IBA3F-2WCXJF_PGCWM-57" target="F9IBA3F-2WCXJF_PGCWM-41" edge="1">
          <mxGeometry relative="1" as="geometry" />
        </mxCell>
        <mxCell id="F9IBA3F-2WCXJF_PGCWM-62" style="edgeStyle=orthogonalEdgeStyle;rounded=0;orthogonalLoop=1;jettySize=auto;html=1;exitX=1;exitY=0.5;exitDx=0;exitDy=0;entryX=0;entryY=0.5;entryDx=0;entryDy=0;" parent="1" target="F9IBA3F-2WCXJF_PGCWM-33" edge="1">
          <mxGeometry relative="1" as="geometry">
            <mxPoint x="85" y="555.5" as="sourcePoint" />
          </mxGeometry>
        </mxCell>
        <mxCell id="F9IBA3F-2WCXJF_PGCWM-65" value="" style="endArrow=none;dashed=1;html=1;rounded=0;" parent="1" edge="1">
          <mxGeometry width="50" height="50" relative="1" as="geometry">
            <mxPoint x="100" y="630" as="sourcePoint" />
            <mxPoint x="100" y="490" as="targetPoint" />
          </mxGeometry>
        </mxCell>
        <mxCell id="F9IBA3F-2WCXJF_PGCWM-67" value="Backend" style="shape=process;whiteSpace=wrap;html=1;backgroundOutline=1;fillColor=#fff2cc;strokeColor=#d6b656;" parent="1" vertex="1">
          <mxGeometry x="10" y="500" width="77" height="112" as="geometry" />
        </mxCell>
        <mxCell id="F9IBA3F-2WCXJF_PGCWM-68" value="AdminControl" style="whiteSpace=wrap;html=1;fillColor=#fad9d5;strokeColor=#ae4132;" parent="1" vertex="1">
          <mxGeometry x="200" y="970" width="160" height="80" as="geometry" />
        </mxCell>
        <mxCell id="F9IBA3F-2WCXJF_PGCWM-69" style="edgeStyle=orthogonalEdgeStyle;rounded=0;orthogonalLoop=1;jettySize=auto;html=1;exitX=1;exitY=0.5;exitDx=0;exitDy=0;entryX=0.6;entryY=1;entryDx=0;entryDy=0;entryPerimeter=0;" parent="1" source="F9IBA3F-2WCXJF_PGCWM-68" target="F9IBA3F-2WCXJF_PGCWM-24" edge="1">
          <mxGeometry relative="1" as="geometry" />
        </mxCell>
        <mxCell id="F9IBA3F-2WCXJF_PGCWM-70" value="READ &amp;amp; WRITE" style="text;html=1;align=center;verticalAlign=middle;resizable=0;points=[];autosize=1;strokeColor=none;fillColor=none;" parent="1" vertex="1">
          <mxGeometry x="680" y="720" width="110" height="30" as="geometry" />
        </mxCell>
        <mxCell id="F9IBA3F-2WCXJF_PGCWM-71" value="" style="verticalLabelPosition=bottom;verticalAlign=top;html=1;shadow=0;dashed=0;strokeWidth=1;shape=mxgraph.android.phone2;strokeColor=#23445d;fillColor=#bac8d3;" parent="1" vertex="1">
          <mxGeometry x="13.5" y="1000" width="70" height="120" as="geometry" />
        </mxCell>
        <mxCell id="F9IBA3F-2WCXJF_PGCWM-75" value="DevicePolicyManager" style="whiteSpace=wrap;html=1;fillColor=#fad9d5;strokeColor=#ae4132;" parent="1" vertex="1">
          <mxGeometry x="200" y="1080" width="120" height="60" as="geometry" />
        </mxCell>
        <mxCell id="F9IBA3F-2WCXJF_PGCWM-76" style="edgeStyle=orthogonalEdgeStyle;rounded=0;orthogonalLoop=1;jettySize=auto;html=1;exitX=0.5;exitY=1;exitDx=0;exitDy=0;entryX=0.658;entryY=0.017;entryDx=0;entryDy=0;entryPerimeter=0;" parent="1" source="F9IBA3F-2WCXJF_PGCWM-68" target="F9IBA3F-2WCXJF_PGCWM-75" edge="1">
          <mxGeometry relative="1" as="geometry" />
        </mxCell>
        <mxCell id="F9IBA3F-2WCXJF_PGCWM-77" style="edgeStyle=orthogonalEdgeStyle;rounded=0;orthogonalLoop=1;jettySize=auto;html=1;exitX=0;exitY=0.5;exitDx=0;exitDy=0;entryX=1.021;entryY=0.658;entryDx=0;entryDy=0;entryPerimeter=0;" parent="1" source="F9IBA3F-2WCXJF_PGCWM-75" target="F9IBA3F-2WCXJF_PGCWM-71" edge="1">
          <mxGeometry relative="1" as="geometry" />
        </mxCell>
        <mxCell id="F9IBA3F-2WCXJF_PGCWM-79" value="Work Managers" style="text;html=1;align=center;verticalAlign=middle;resizable=0;points=[];autosize=1;strokeColor=#9673a6;fillColor=#e1d5e7;fontStyle=1" parent="1" vertex="1">
          <mxGeometry x="475" y="690" width="110" height="30" as="geometry" />
        </mxCell>
        <mxCell id="F9IBA3F-2WCXJF_PGCWM-83" value="Log&lt;br&gt;Module" style="shape=trapezoid;perimeter=trapezoidPerimeter;whiteSpace=wrap;html=1;fixedSize=1;" parent="1" vertex="1">
          <mxGeometry x="430" y="1060" width="120" height="60" as="geometry" />
        </mxCell>
        <mxCell id="F9IBA3F-2WCXJF_PGCWM-84" value="Provision&lt;br&gt;Module" style="shape=trapezoid;perimeter=trapezoidPerimeter;whiteSpace=wrap;html=1;fixedSize=1;" parent="1" vertex="1">
          <mxGeometry x="560" y="1060" width="120" height="60" as="geometry" />
        </mxCell>
        <mxCell id="F9IBA3F-2WCXJF_PGCWM-85" value="Sentry" style="shape=trapezoid;perimeter=trapezoidPerimeter;whiteSpace=wrap;html=1;fixedSize=1;" parent="1" vertex="1">
          <mxGeometry x="690" y="1060" width="120" height="60" as="geometry" />
        </mxCell>
        <mxCell id="01N_veSfBynAbCHjC4yj-1" value="DevicePolicyManager" style="whiteSpace=wrap;html=1;fillColor=#fad9d5;strokeColor=#ae4132;" vertex="1" parent="1">
          <mxGeometry x="200" y="1080" width="120" height="60" as="geometry" />
        </mxCell>
      </root>
    </mxGraphModel>
  </diagram>
</mxfile>
